<mxfile host="app.diagrams.net" modified="2022-03-07T09:13:24.251Z" agent="5.0 (Macintosh; Intel Mac OS X 10_15_7) AppleWebKit/537.36 (KHTML, like Gecko) Chrome/95.0.4638.69 Safari/537.36" etag="s--N5yD7wUm2H_IAL1dw" version="16.6.6" type="github">
  <diagram id="DBV8wZsSGvX2jwQpm6d3" name="第 1 页">
    <mxGraphModel dx="1753" dy="511" grid="1" gridSize="10" guides="1" tooltips="1" connect="1" arrows="1" fold="1" page="1" pageScale="1" pageWidth="827" pageHeight="1169" math="0" shadow="0">
      <root>
        <mxCell id="0" />
        <mxCell id="1" parent="0" />
        <mxCell id="rHXohSRp-2kM2scYEGQ9-3" value="" style="edgeStyle=orthogonalEdgeStyle;rounded=0;orthogonalLoop=1;jettySize=auto;html=1;" edge="1" parent="1" source="rHXohSRp-2kM2scYEGQ9-1" target="rHXohSRp-2kM2scYEGQ9-2">
          <mxGeometry relative="1" as="geometry" />
        </mxCell>
        <mxCell id="rHXohSRp-2kM2scYEGQ9-1" value="&lt;pre style=&quot;background-color: rgb(255 , 255 , 255) ; font-family: &amp;#34;jetbrains mono&amp;#34; , monospace ; font-size: 11.3pt&quot;&gt;GateWayApplication&lt;/pre&gt;" style="rounded=1;whiteSpace=wrap;html=1;" vertex="1" parent="1">
          <mxGeometry x="80" y="50" width="180" height="70" as="geometry" />
        </mxCell>
        <mxCell id="rHXohSRp-2kM2scYEGQ9-5" value="" style="edgeStyle=orthogonalEdgeStyle;rounded=0;orthogonalLoop=1;jettySize=auto;html=1;" edge="1" parent="1" source="rHXohSRp-2kM2scYEGQ9-2" target="rHXohSRp-2kM2scYEGQ9-4">
          <mxGeometry relative="1" as="geometry" />
        </mxCell>
        <mxCell id="rHXohSRp-2kM2scYEGQ9-6" style="edgeStyle=orthogonalEdgeStyle;rounded=0;orthogonalLoop=1;jettySize=auto;html=1;exitX=1;exitY=1;exitDx=0;exitDy=0;" edge="1" parent="1" source="rHXohSRp-2kM2scYEGQ9-2">
          <mxGeometry relative="1" as="geometry">
            <mxPoint x="310" y="340" as="targetPoint" />
            <Array as="points">
              <mxPoint x="170" y="265" />
              <mxPoint x="170" y="340" />
            </Array>
          </mxGeometry>
        </mxCell>
        <mxCell id="rHXohSRp-2kM2scYEGQ9-30" value="" style="edgeStyle=orthogonalEdgeStyle;rounded=0;orthogonalLoop=1;jettySize=auto;html=1;" edge="1" parent="1" source="rHXohSRp-2kM2scYEGQ9-2" target="rHXohSRp-2kM2scYEGQ9-29">
          <mxGeometry relative="1" as="geometry" />
        </mxCell>
        <mxCell id="rHXohSRp-2kM2scYEGQ9-39" value="" style="edgeStyle=orthogonalEdgeStyle;rounded=0;orthogonalLoop=1;jettySize=auto;html=1;" edge="1" parent="1" source="rHXohSRp-2kM2scYEGQ9-2" target="rHXohSRp-2kM2scYEGQ9-38">
          <mxGeometry relative="1" as="geometry" />
        </mxCell>
        <mxCell id="rHXohSRp-2kM2scYEGQ9-2" value="&lt;pre style=&quot;background-color: rgb(255 , 255 , 255) ; font-family: &amp;#34;jetbrains mono&amp;#34; , monospace ; font-size: 11.3pt&quot;&gt;includeFilters&lt;/pre&gt;" style="rounded=1;whiteSpace=wrap;html=1;" vertex="1" parent="1">
          <mxGeometry x="110" y="205" width="120" height="60" as="geometry" />
        </mxCell>
        <mxCell id="rHXohSRp-2kM2scYEGQ9-9" value="" style="edgeStyle=orthogonalEdgeStyle;rounded=0;orthogonalLoop=1;jettySize=auto;html=1;" edge="1" parent="1" source="rHXohSRp-2kM2scYEGQ9-4" target="rHXohSRp-2kM2scYEGQ9-8">
          <mxGeometry relative="1" as="geometry">
            <Array as="points">
              <mxPoint x="390" y="90" />
            </Array>
          </mxGeometry>
        </mxCell>
        <mxCell id="rHXohSRp-2kM2scYEGQ9-4" value="&lt;pre style=&quot;background-color: rgb(255 , 255 , 255) ; font-family: &amp;#34;jetbrains mono&amp;#34; , monospace ; font-size: 11.3pt&quot;&gt;&lt;pre style=&quot;font-family: &amp;#34;jetbrains mono&amp;#34; , monospace ; font-size: 11.3pt&quot;&gt;&lt;span style=&quot;color: #808000&quot;&gt;@NettyHttpHandler&lt;/span&gt;&lt;/pre&gt;&lt;/pre&gt;" style="rounded=1;whiteSpace=wrap;html=1;" vertex="1" parent="1">
          <mxGeometry x="310" y="205" width="160" height="60" as="geometry" />
        </mxCell>
        <mxCell id="rHXohSRp-2kM2scYEGQ9-7" value="&lt;pre style=&quot;background-color: rgb(255 , 255 , 255)&quot;&gt;&lt;pre&gt;&lt;font color=&quot;#808000&quot; face=&quot;jetbrains mono, monospace&quot;&gt;&lt;span style=&quot;font-size: 15.0667px&quot;&gt;@EnableDubbo&lt;/span&gt;&lt;/font&gt;&lt;font face=&quot;jetbrains mono, monospace&quot;&gt;&lt;span style=&quot;font-size: 11.3pt&quot;&gt;&lt;br&gt;&lt;/span&gt;&lt;/font&gt;&lt;/pre&gt;&lt;/pre&gt;" style="rounded=1;whiteSpace=wrap;html=1;" vertex="1" parent="1">
          <mxGeometry x="310" y="310" width="160" height="60" as="geometry" />
        </mxCell>
        <mxCell id="rHXohSRp-2kM2scYEGQ9-14" style="edgeStyle=orthogonalEdgeStyle;rounded=0;orthogonalLoop=1;jettySize=auto;html=1;exitX=0.5;exitY=1;exitDx=0;exitDy=0;entryX=0.5;entryY=0;entryDx=0;entryDy=0;" edge="1" parent="1" source="rHXohSRp-2kM2scYEGQ9-8" target="rHXohSRp-2kM2scYEGQ9-11">
          <mxGeometry relative="1" as="geometry" />
        </mxCell>
        <mxCell id="rHXohSRp-2kM2scYEGQ9-15" style="edgeStyle=orthogonalEdgeStyle;rounded=0;orthogonalLoop=1;jettySize=auto;html=1;exitX=0.5;exitY=1;exitDx=0;exitDy=0;entryX=0.5;entryY=0;entryDx=0;entryDy=0;" edge="1" parent="1" source="rHXohSRp-2kM2scYEGQ9-8" target="rHXohSRp-2kM2scYEGQ9-12">
          <mxGeometry relative="1" as="geometry" />
        </mxCell>
        <mxCell id="rHXohSRp-2kM2scYEGQ9-16" style="edgeStyle=orthogonalEdgeStyle;rounded=0;orthogonalLoop=1;jettySize=auto;html=1;exitX=0.5;exitY=1;exitDx=0;exitDy=0;entryX=0.5;entryY=0;entryDx=0;entryDy=0;" edge="1" parent="1" source="rHXohSRp-2kM2scYEGQ9-8" target="rHXohSRp-2kM2scYEGQ9-13">
          <mxGeometry relative="1" as="geometry" />
        </mxCell>
        <mxCell id="rHXohSRp-2kM2scYEGQ9-8" value="&lt;pre style=&quot;background-color: rgb(255 , 255 , 255) ; font-family: &amp;#34;jetbrains mono&amp;#34; , monospace ; font-size: 11.3pt&quot;&gt;IHttpHandler&lt;/pre&gt;" style="ellipse;whiteSpace=wrap;html=1;rounded=1;" vertex="1" parent="1">
          <mxGeometry x="780" y="70" width="120" height="60" as="geometry" />
        </mxCell>
        <mxCell id="rHXohSRp-2kM2scYEGQ9-18" value="" style="edgeStyle=orthogonalEdgeStyle;rounded=0;orthogonalLoop=1;jettySize=auto;html=1;" edge="1" parent="1" source="rHXohSRp-2kM2scYEGQ9-11" target="rHXohSRp-2kM2scYEGQ9-17">
          <mxGeometry relative="1" as="geometry" />
        </mxCell>
        <mxCell id="rHXohSRp-2kM2scYEGQ9-11" value="&lt;pre style=&quot;background-color: rgb(255 , 255 , 255) ; font-family: &amp;#34;jetbrains mono&amp;#34; , monospace ; font-size: 11.3pt&quot;&gt;EntryRemoteHandler&lt;/pre&gt;" style="rounded=1;whiteSpace=wrap;html=1;" vertex="1" parent="1">
          <mxGeometry x="520" y="205" width="180" height="60" as="geometry" />
        </mxCell>
        <mxCell id="rHXohSRp-2kM2scYEGQ9-12" value="&lt;pre style=&quot;background-color: rgb(255 , 255 , 255) ; font-family: &amp;#34;jetbrains mono&amp;#34; , monospace ; font-size: 11.3pt&quot;&gt;&lt;pre style=&quot;font-family: &amp;#34;jetbrains mono&amp;#34; , monospace ; font-size: 11.3pt&quot;&gt;PathVariableHandler&lt;/pre&gt;&lt;/pre&gt;" style="rounded=1;whiteSpace=wrap;html=1;" vertex="1" parent="1">
          <mxGeometry x="750" y="205" width="180" height="60" as="geometry" />
        </mxCell>
        <mxCell id="rHXohSRp-2kM2scYEGQ9-13" value="&lt;pre style=&quot;background-color: rgb(255 , 255 , 255) ; font-family: &amp;#34;jetbrains mono&amp;#34; , monospace ; font-size: 11.3pt&quot;&gt;&lt;pre style=&quot;font-family: &amp;#34;jetbrains mono&amp;#34; , monospace ; font-size: 11.3pt&quot;&gt;RequestBodyHandler&lt;/pre&gt;&lt;/pre&gt;" style="rounded=1;whiteSpace=wrap;html=1;" vertex="1" parent="1">
          <mxGeometry x="980" y="205" width="180" height="60" as="geometry" />
        </mxCell>
        <mxCell id="rHXohSRp-2kM2scYEGQ9-20" value="" style="edgeStyle=orthogonalEdgeStyle;rounded=0;orthogonalLoop=1;jettySize=auto;html=1;" edge="1" parent="1" source="rHXohSRp-2kM2scYEGQ9-17" target="rHXohSRp-2kM2scYEGQ9-19">
          <mxGeometry relative="1" as="geometry" />
        </mxCell>
        <mxCell id="rHXohSRp-2kM2scYEGQ9-17" value="解析url转换为微服务" style="ellipse;whiteSpace=wrap;html=1;rounded=1;" vertex="1" parent="1">
          <mxGeometry x="550" y="345" width="120" height="60" as="geometry" />
        </mxCell>
        <mxCell id="rHXohSRp-2kM2scYEGQ9-22" value="" style="edgeStyle=orthogonalEdgeStyle;rounded=0;orthogonalLoop=1;jettySize=auto;html=1;" edge="1" parent="1" source="rHXohSRp-2kM2scYEGQ9-19" target="rHXohSRp-2kM2scYEGQ9-21">
          <mxGeometry relative="1" as="geometry" />
        </mxCell>
        <mxCell id="rHXohSRp-2kM2scYEGQ9-19" value="获取&lt;span style=&quot;background-color: rgb(255 , 255 , 255) ; font-family: &amp;#34;jetbrains mono&amp;#34; , monospace ; font-size: 11.3pt&quot;&gt;ParameterMap&lt;/span&gt;&lt;br&gt;" style="ellipse;whiteSpace=wrap;html=1;rounded=1;" vertex="1" parent="1">
          <mxGeometry x="550" y="485" width="120" height="60" as="geometry" />
        </mxCell>
        <mxCell id="rHXohSRp-2kM2scYEGQ9-24" value="" style="edgeStyle=orthogonalEdgeStyle;rounded=0;orthogonalLoop=1;jettySize=auto;html=1;" edge="1" parent="1" source="rHXohSRp-2kM2scYEGQ9-21" target="rHXohSRp-2kM2scYEGQ9-23">
          <mxGeometry relative="1" as="geometry" />
        </mxCell>
        <mxCell id="rHXohSRp-2kM2scYEGQ9-21" value="&lt;span&gt;从nacos中获取微服务实例&lt;/span&gt;" style="ellipse;whiteSpace=wrap;html=1;rounded=1;" vertex="1" parent="1">
          <mxGeometry x="550" y="625" width="120" height="60" as="geometry" />
        </mxCell>
        <mxCell id="rHXohSRp-2kM2scYEGQ9-27" value="" style="edgeStyle=orthogonalEdgeStyle;rounded=0;orthogonalLoop=1;jettySize=auto;html=1;" edge="1" parent="1" source="rHXohSRp-2kM2scYEGQ9-23" target="rHXohSRp-2kM2scYEGQ9-26">
          <mxGeometry relative="1" as="geometry" />
        </mxCell>
        <mxCell id="rHXohSRp-2kM2scYEGQ9-28" value="" style="edgeStyle=orthogonalEdgeStyle;rounded=0;orthogonalLoop=1;jettySize=auto;html=1;" edge="1" parent="1" source="rHXohSRp-2kM2scYEGQ9-23" target="rHXohSRp-2kM2scYEGQ9-25">
          <mxGeometry relative="1" as="geometry" />
        </mxCell>
        <mxCell id="rHXohSRp-2kM2scYEGQ9-23" value="&lt;pre style=&quot;background-color: rgb(255 , 255 , 255) ; font-family: &amp;#34;jetbrains mono&amp;#34; , monospace ; font-size: 11.3pt&quot;&gt;&lt;span style=&quot;font-style: italic&quot;&gt;dubboInvok&lt;/span&gt;&lt;/pre&gt;&lt;pre style=&quot;background-color: rgb(255 , 255 , 255) ; font-family: &amp;#34;jetbrains mono&amp;#34; , monospace ; font-size: 11.3pt&quot;&gt;&lt;span style=&quot;font-style: italic&quot;&gt;dubbo泛化调用&lt;/span&gt;&lt;/pre&gt;" style="ellipse;whiteSpace=wrap;html=1;rounded=1;" vertex="1" parent="1">
          <mxGeometry x="540" y="770" width="140" height="95" as="geometry" />
        </mxCell>
        <mxCell id="rHXohSRp-2kM2scYEGQ9-25" value="获取返回结果" style="rounded=0;whiteSpace=wrap;html=1;" vertex="1" parent="1">
          <mxGeometry x="550" y="960" width="120" height="60" as="geometry" />
        </mxCell>
        <mxCell id="rHXohSRp-2kM2scYEGQ9-26" value="异常处理&lt;br&gt;匹配异常类型&lt;br&gt;返回统一格式" style="whiteSpace=wrap;html=1;rounded=1;" vertex="1" parent="1">
          <mxGeometry x="354" y="787.5" width="120" height="60" as="geometry" />
        </mxCell>
        <mxCell id="rHXohSRp-2kM2scYEGQ9-34" value="" style="edgeStyle=orthogonalEdgeStyle;rounded=0;orthogonalLoop=1;jettySize=auto;html=1;" edge="1" parent="1" source="rHXohSRp-2kM2scYEGQ9-29" target="rHXohSRp-2kM2scYEGQ9-33">
          <mxGeometry relative="1" as="geometry" />
        </mxCell>
        <mxCell id="rHXohSRp-2kM2scYEGQ9-29" value="OptionCheckFilter&lt;br&gt;order:1" style="whiteSpace=wrap;html=1;rounded=1;" vertex="1" parent="1">
          <mxGeometry x="110" y="425" width="120" height="60" as="geometry" />
        </mxCell>
        <mxCell id="rHXohSRp-2kM2scYEGQ9-32" value="允许业务域名跨域" style="text;html=1;strokeColor=none;fillColor=none;align=center;verticalAlign=middle;whiteSpace=wrap;rounded=0;" vertex="1" parent="1">
          <mxGeometry x="240" y="440" width="100" height="30" as="geometry" />
        </mxCell>
        <mxCell id="rHXohSRp-2kM2scYEGQ9-37" value="" style="edgeStyle=orthogonalEdgeStyle;rounded=0;orthogonalLoop=1;jettySize=auto;html=1;" edge="1" parent="1" source="rHXohSRp-2kM2scYEGQ9-33" target="rHXohSRp-2kM2scYEGQ9-36">
          <mxGeometry relative="1" as="geometry" />
        </mxCell>
        <mxCell id="rHXohSRp-2kM2scYEGQ9-33" value="AuthCheckFilter&lt;br&gt;order:2" style="whiteSpace=wrap;html=1;rounded=1;" vertex="1" parent="1">
          <mxGeometry x="110" y="565" width="120" height="60" as="geometry" />
        </mxCell>
        <mxCell id="rHXohSRp-2kM2scYEGQ9-35" value="用户cookie校验&lt;br&gt;打印请求IP地址&lt;br&gt;生成LogId" style="text;html=1;strokeColor=none;fillColor=none;align=center;verticalAlign=middle;whiteSpace=wrap;rounded=0;" vertex="1" parent="1">
          <mxGeometry x="240" y="570" width="130" height="50" as="geometry" />
        </mxCell>
        <mxCell id="rHXohSRp-2kM2scYEGQ9-36" value="JWT机制" style="ellipse;whiteSpace=wrap;html=1;rounded=1;" vertex="1" parent="1">
          <mxGeometry x="-90" y="565" width="120" height="60" as="geometry" />
        </mxCell>
        <mxCell id="rHXohSRp-2kM2scYEGQ9-41" value="" style="edgeStyle=orthogonalEdgeStyle;rounded=0;orthogonalLoop=1;jettySize=auto;html=1;" edge="1" parent="1" source="rHXohSRp-2kM2scYEGQ9-38" target="rHXohSRp-2kM2scYEGQ9-40">
          <mxGeometry relative="1" as="geometry">
            <Array as="points">
              <mxPoint x="-210" y="235" />
              <mxPoint x="-210" y="235" />
            </Array>
          </mxGeometry>
        </mxCell>
        <mxCell id="rHXohSRp-2kM2scYEGQ9-38" value="iohandler" style="whiteSpace=wrap;html=1;rounded=1;" vertex="1" parent="1">
          <mxGeometry x="-130" y="205" width="120" height="60" as="geometry" />
        </mxCell>
        <mxCell id="rHXohSRp-2kM2scYEGQ9-40" value="&lt;pre style=&quot;background-color: rgb(255 , 255 , 255) ; font-family: &amp;#34;jetbrains mono&amp;#34; , monospace ; font-size: 11.3pt&quot;&gt;HttpServerHandler&lt;/pre&gt;" style="whiteSpace=wrap;html=1;rounded=1;" vertex="1" parent="1">
          <mxGeometry x="-400" y="205" width="160" height="60" as="geometry" />
        </mxCell>
        <mxCell id="rHXohSRp-2kM2scYEGQ9-45" value="&lt;span style=&quot;background-color: rgb(255 , 255 , 255) ; font-family: &amp;#34;jetbrains mono&amp;#34; , monospace ; font-size: 11.3pt&quot;&gt;Handler&amp;nbsp;&lt;/span&gt;&lt;span&gt;extends ChannelInboundHandlerAdapter implements ApplicationContextAware&lt;/span&gt;" style="shape=note;whiteSpace=wrap;html=1;backgroundOutline=1;darkOpacity=0.05;" vertex="1" parent="1">
          <mxGeometry x="-120" y="265" width="200" height="100" as="geometry" />
        </mxCell>
        <mxCell id="rHXohSRp-2kM2scYEGQ9-46" value="&lt;span style=&quot;background-color: rgb(255 , 255 , 255) ; font-family: &amp;#34;jetbrains mono&amp;#34; , monospace ; font-size: 11.3pt&quot;&gt;Handler&amp;nbsp;&lt;/span&gt;&lt;span&gt;extends ChannelInboundHandlerAdapter implements ApplicationContextAware&lt;/span&gt;" style="shape=note;whiteSpace=wrap;html=1;backgroundOutline=1;darkOpacity=0.05;" vertex="1" parent="1">
          <mxGeometry x="-400" y="265" width="200" height="100" as="geometry" />
        </mxCell>
      </root>
    </mxGraphModel>
  </diagram>
</mxfile>
